<?xml version="1.0" encoding="utf-8"?>
<!-- Generator: Adobe Illustrator 16.0.0, SVG Export Plug-In . SVG Version: 6.00 Build 0)  -->
<!DOCTYPE svg PUBLIC "-//W3C//DTD SVG 1.1//EN" "http://www.w3.org/Graphics/SVG/1.1/DTD/svg11.dtd">
<svg version="1.1" id="Capa_1" xmlns="http://www.w3.org/2000/svg" xmlns:xlink="http://www.w3.org/1999/xlink" x="0px" y="0px"
	 width="500px" height="300px" viewBox="0 0 500 300" enable-background="new 0 0 500 300" xml:space="preserve">
<polygon points="137.568,172.655 158.508,172.655 158.34,39.208 137.679,39.208 "/>
<path d="M136.88,19.268h21.628c0-23.119-21.686-19.126-21.686-19.126L136.88,19.268z"/>
<path d="M65.167,153.411l0.196-134.144c0-23.119-21.686-19.126-21.686-19.126l0.001,0.549l-0.001-0.001v172.383h82.049v-19.661
	H65.167z"/>
<path d="M263.369,96.484c-8.229-9.375-18.29-14.404-30.636-14.404c-20.119,0-35.666,17.833-35.666,37.495
	c0,21.947,15.318,37.952,37.038,37.952c11.89,0,21.49-5.486,29.264-14.176v26.293c-9.372,5.029-18.748,7.087-29.492,7.087
	c-31.551,0-57.386-24.234-57.386-56.242c0-33.15,25.606-57.614,58.528-57.614c9.601,0,20.12,2.286,28.349,7.088V96.484z"/>
<path fill="#1A3B68" d="M334.444,62.875c-32.008,0-57.156,24.692-57.156,56.928c0,22.072,11.801,40.585,29.511,50.077l1.585-25.67
	c-5.574-6.585-10.519-15.259-10.519-24.407c0-20.348,16.231-37.266,36.579-37.266c20.349,0,36.58,16.918,36.58,37.266
	c0,11.132-7.413,21.241-15.3,28.15l2.43,23.844c19.878-8.744,33.447-28.325,33.447-51.994
	C391.602,87.567,366.452,62.875,334.444,62.875z"/>
<path d="M376.301,246.231c0.229,18.29,12.574,35.437,32.236,35.437c15.774,0,24.234-8.001,32.008-20.805l15.41,13.177
	c-10.059,18.517-26.842,25.918-47.646,25.918c-32.692,0-52.584-24.691-52.584-56.241c0-32.922,17.604-57.613,52.127-57.613
	c34.064,0,50.069,25.148,50.069,56.927v3.201H376.301z M437.345,230.684c-2.516-16.003-13.033-26.748-29.493-26.748
	c-16.005,0-27.894,11.432-30.408,26.748H437.345z"/>
<path d="M343.139,123.721c-3.335-0.438-20.576-1.658-20.576,19.181l0,0v64.276h-0.457c-8.46-12.803-21.262-21.032-37.266-21.032
	c-30.864,0-50.298,26.748-50.298,56.012c0,30.637,18.289,57.843,51.213,57.843c15.089,0,28.119-8.23,36.351-20.347h0.457v16.688
	h20.576 M288.955,281.71c-21.72,0-33.837-18.746-33.837-38.867c0-19.889,12.574-38.408,33.837-38.408
	c22.177,0,34.752,17.604,34.752,38.408C323.707,263.877,311.36,281.71,288.955,281.71z"/>
</svg>
