<?xml version="1.0" encoding="utf-8"?>
<!-- Generator: Adobe Illustrator 16.0.0, SVG Export Plug-In . SVG Version: 6.00 Build 0)  -->
<!DOCTYPE svg PUBLIC "-//W3C//DTD SVG 1.1//EN" "http://www.w3.org/Graphics/SVG/1.1/DTD/svg11.dtd">
<svg version="1.1" id="Capa_1" xmlns="http://www.w3.org/2000/svg" xmlns:xlink="http://www.w3.org/1999/xlink" x="0px" y="0px"
	 width="500px" height="300px" viewBox="0 0 500 300" enable-background="new 0 0 500 300" xml:space="preserve">
<g>
	<path fill="#003676" d="M317.939,151.332"/>
	<path fill="#003676" d="M160.536,48.917c-6.952-20.167-23.572-16.157-23.572-16.157l35.313,87.987
		c0.79,2.171,1.184,3.552,1.184,4.538c0,0.987-0.592,2.368-1.382,4.142c-3.943,8.88-7.011,16.852-12.578,18.573s-19.5,1-19.5,1
		l-60.5-0.25c0,0,0.247-79.902,0.247-99.833S63.75,32,63.75,32l0.083,133.724h73.979c0,0,25.815,1.439,34.715-7.459
		c11.077-11.077,15.729-24.697,28.16-57.444l30.217-68.189c-17.152-3.799-23.835,16.284-23.835,16.284s-21.966,54.075-23.744,59.796
		"/>
	<path fill="#003676" d="M317.939,73.139V149c0,0-17.362,2.64-17.362-19c0-27.23,0-54.888,0-54.888
		c0-15.388-5.72-28.208-22.096-28.208c-11.442,0-20.318,8.086-23.278,17.752c-0.79,2.171-1.245,4.718-1.245,7.677l-0.048,145.659
		c0,0,6.119-6.326,8.879-9.679l37.751-42.333h17.466l-43.183,48.646l42.022,56.225h-21.11l-31.842-44.665l-9.98,10.289v34.376
		L238,270.75v-16.968c-4.567,4.493-10.431,8.434-13.72,10.019l0.002,0.005c-4.536,2.368-14.598,5.522-27.418,5.522
		c-28.806,0-47.548-19.529-47.548-48.726c0-29.396,19.216-49.972,50.384-49.972c10.259,0,20.081,5.104,24.813,7.473l-4.15,11.707
		c-4.146-2.369-10.283-6.102-19.755-6.102c-21.898,0-33.734,16.178-33.734,36.104c0,22.095,14.206,35.708,33.143,35.708
		c9.399,0,15.68-2.46,20.58-4.423c9.19-3.68,15.639-13.341,17.411-15.102c0,0,0.584-195.604-0.008-203.496
		c0,0,15.377-2.124,15.377,16.633c5.055-5.055,15.044-16.633,30.826-16.633C297.42,32.5,317.939,40.392,317.939,73.139z"/>
	<polygon fill="#003676" points="332.055,270.664 347.625,270.664 347.5,166.022 332.137,166.022 	"/>
	<path fill="#003676" d="M331.543,149.332h16.082c0-18.129-16.125-14.999-16.125-14.999L331.543,149.332z"/>
	<path fill="#003676" d="M434.42,244.473v-35.707c0-19.137-7.102-39.063-36.298-39.063c-12.034,0-23.477,3.352-31.37,8.482
		l3.946,11.443c6.708-4.341,15.981-7.104,24.855-7.104c19.53,0,21.702,14.206,21.702,22.096v1.975
		c-36.892-0.198-57.408,12.427-57.408,35.51c0,13.809,9.862,27.422,29.198,27.422c13.61,0,23.872-6.709,29.196-14.204
		c0,0-2.015,12.034,17.758,12.034C436,265.676,434.42,252.76,434.42,244.473z M417.652,235.201c0,1.773-0.396,3.745-0.988,5.523
		c-2.762,8.087-10.652,15.979-23.08,15.979c-8.878,0-16.378-5.324-16.378-16.57c0-18.547,21.508-21.898,40.446-21.506V235.201z"/>
</g>
</svg>
