<?xml version="1.0" encoding="utf-8"?>
<!-- Generator: Adobe Illustrator 16.0.0, SVG Export Plug-In . SVG Version: 6.00 Build 0)  -->
<!DOCTYPE svg PUBLIC "-//W3C//DTD SVG 1.1//EN" "http://www.w3.org/Graphics/SVG/1.1/DTD/svg11.dtd">
<svg version="1.1" id="Capa_1" xmlns="http://www.w3.org/2000/svg" xmlns:xlink="http://www.w3.org/1999/xlink" x="0px" y="0px"
	 width="300px" height="300px" viewBox="0 0 300 300" enable-background="new 0 0 300 300" xml:space="preserve">
<g>
	<path fill="#003676" d="M175.989,158.424c-1.781,14.014-14.577,23.925-28.583,22.158c-14.01-1.778-23.925-14.561-22.147-28.568
		c1.77-14.008,14.552-23.925,28.575-22.146C167.824,131.628,177.752,144.417,175.989,158.424z"/>
	<path opacity="0.6" fill="#003676" d="M133.651,199.057c-1.373,10.819-11.238,18.467-22.052,17.104
		c-10.803-1.369-18.455-11.239-17.087-22.053c1.368-10.799,11.229-18.451,22.04-17.083
		C127.354,178.389,135.019,188.255,133.651,199.057z"/>
	<path opacity="0.4" fill="#003676" d="M92.688,228.729c-1.01,8.035-8.351,13.71-16.384,12.695
		c-8.035-1.01-13.715-8.342-12.692-16.375c1.007-8.035,8.347-13.71,16.372-12.695C88.015,213.362,93.711,220.694,92.688,228.729z"/>
	<path opacity="0.3" fill="#003676" d="M60.918,252.854c-0.756,5.941-6.182,10.158-12.133,9.399
		c-5.939-0.749-10.149-6.187-9.402-12.124c0.743-5.943,6.173-10.163,12.129-9.411C57.464,241.471,61.674,246.902,60.918,252.854z"/>
	<path fill="#003676" d="M159.888,131.894c12.764,6.035,18.233,21.282,12.204,34.05c-6.033,12.761-21.268,18.211-34.045,12.19
		c-12.766-6.034-18.225-21.269-12.191-34.041C131.897,131.329,147.136,125.873,159.888,131.894z"/>
	<path opacity="0.6" fill="#003676" d="M184.254,186.727c9.845,4.654,14.051,16.418,9.401,26.271
		c-4.658,9.842-16.403,14.056-26.259,9.402c-9.86-4.653-14.075-16.413-9.404-26.262
		C162.637,186.291,174.409,182.082,184.254,186.727z"/>
	<path opacity="0.4" fill="#003676" d="M199.727,234.872c7.322,3.46,10.452,12.192,6.986,19.516
		c-3.446,7.322-12.19,10.444-19.506,6.991c-7.324-3.46-10.454-12.195-6.986-19.522C183.675,234.553,192.411,231.414,199.727,234.872
		z"/>
	<path opacity="0.3" fill="#003676" d="M212.805,272.569c5.403,2.556,7.732,9.029,5.161,14.45c-2.563,5.422-9.035,7.738-14.445,5.18
		c-5.416-2.566-7.733-9.039-5.171-14.453C200.909,272.324,207.365,270.009,212.805,272.569z"/>
	<path fill="#003676" d="M161.486,177.329c-12.326,6.889-27.905,2.506-34.813-9.808c-6.905-12.326-2.514-27.889,9.816-34.813
		c12.302-6.892,27.89-2.503,34.785,9.806C178.188,154.838,173.801,170.408,161.486,177.329z"/>
	<path opacity="0.6" fill="#003676" d="M106.341,161.229c-9.488,5.323-21.51,1.946-26.841-7.557
		c-5.332-9.516-1.935-21.531,7.57-26.855c9.496-5.333,21.519-1.947,26.841,7.556C119.247,143.885,115.862,155.897,106.341,161.229z"
		/>
	<path opacity="0.4" fill="#003676" d="M58.146,145.933c-7.064,3.945-15.977,1.435-19.949-5.632
		c-3.952-7.055-1.434-15.992,5.635-19.939c7.044-3.964,15.978-1.452,19.938,5.613C67.72,133.027,65.21,141.963,58.146,145.933z"/>
	<path opacity="0.3" fill="#003676" d="M19.861,134.718c-5.237,2.931-11.846,1.076-14.77-4.163
		c-2.933-5.227-1.076-11.844,4.156-14.776c5.225-2.92,11.837-1.072,14.778,4.163C26.955,125.174,25.094,131.785,19.861,134.718z"/>
	<path opacity="0.8" fill="#003676" d="M133.167,175.415c-10.987-8.867-12.712-24.958-3.861-35.947
		c8.868-10.993,24.973-12.713,35.96-3.843c10.987,8.872,12.703,24.954,3.836,35.954
		C160.251,182.554,144.158,184.278,133.167,175.415z"/>
	<path opacity="0.6" fill="#003676" d="M137.368,112.435c-6.305-8.878-4.214-21.193,4.658-27.507
		c8.884-6.307,21.206-4.218,27.506,4.662c6.313,8.883,4.224,21.194-4.66,27.501C155.992,123.397,143.677,121.317,137.368,112.435z"
		/>
	<path opacity="0.4" fill="#003676" d="M147.452,62.878c-4.683-6.592-3.142-15.755,3.471-20.438
		c6.592-4.685,15.743-3.134,20.426,3.47c4.683,6.597,3.133,15.736-3.472,20.435C161.286,71.025,152.13,69.48,147.452,62.878z"/>
	<path opacity="0.3" fill="#003676" d="M154.516,23.62c-3.486-4.896-2.323-11.663,2.563-15.144
		c4.896-3.471,11.669-2.323,15.145,2.571c3.463,4.881,2.308,11.661-2.567,15.129C164.76,29.646,157.992,28.501,154.516,23.62z"/>
	<path opacity="0.6" fill="#003676" d="M186.627,137.829c7.702-7.687,20.206-7.683,27.909,0.026
		c7.693,7.712,7.682,20.202-0.028,27.899c-7.717,7.705-20.203,7.688-27.896-0.021C178.91,158.024,178.926,145.535,186.627,137.829z"
		/>
	<path opacity="0.4" fill="#003676" d="M237.181,139.543c5.726-5.722,15.004-5.711,20.718,0.011
		c5.729,5.734,5.708,15.021-0.016,20.729c-5.728,5.726-15.005,5.718-20.723-0.016C231.438,154.546,231.447,145.267,237.181,139.543z
		"/>
	<path opacity="0.3" fill="#003676" d="M277.059,139.988c4.248-4.237,11.12-4.235,15.365,0.008
		c4.235,4.245,4.223,11.119-0.019,15.36c-4.24,4.229-11.112,4.226-15.347-0.018C272.82,151.1,272.833,144.22,277.059,139.988z"/>
</g>
</svg>
