<?xml version="1.0" standalone="no"?>
<!DOCTYPE svg PUBLIC "-//W3C//DTD SVG 1.1//EN" "../../../../www.w3.org/Graphics/SVG/1.1/DTD/svg11.dtd" >
<svg xmlns="http://www.w3.org/2000/svg">
<metadata></metadata>
<defs>
<font id="socialicoregular" horiz-adv-x="1630" >
<font-face units-per-em="2048" ascent="1536" descent="-512" />
<missing-glyph horiz-adv-x="500" />
<glyph horiz-adv-x="2048" />
<glyph horiz-adv-x="2048" />
<glyph unicode="&#xd;" />
<glyph unicode=" " d="M96 729q0 150 56.5 281t155 228t229 153.5t280.5 56.5t281 -56.5t228 -153.5t153.5 -228t56.5 -281t-56.5 08DD7BEA76" />
<glyph unicode="!" d="M96 719q0 150 56.5 280.5t155 229t229.5 155t280 56.5q150 0 281 -56.5t228 -155t153.5 -229.5t56.5 -280q0 -150 -56.5 -281t-153.5 -228t-228 -153.5t-281 -56.5t-280.5 56.5t-229 153.5t-155 228t-56.5 281zM303 616q0 -49 41 -86v172q-18 -16 -29.5 -37.5 t-11.5 -48.5zM387 508q8 -2 15.5 -3t17.5 -1h10v225q-4 2 -10 2q-10 0 -17.5 -1t-15.5 -3v-219zM473 504h43v284q-27 -37 -35 -75l-8 4v-213zM559 504h43v346q-23 -6 -43 -21v-325zM645 504h43v354q-6 0 -13 1t-13 1q-10 0 -17 -2v-354zM711 504h63v356q-4 -6 -9 -12t-9 -14 q-20 10 -45 18v-348zM797 504h407v2q66 4 95.5 39t29.5 84q0 51 -33.5 87t-87.5 36q-23 0 -49 -11q-10 82 -71.5 137.5t-147.5 55.5t-143 -53v-377z" />
<glyph unicode="$" horiz-adv-x="1628" d="M96 717q0 150 56.5 280.5t153.5 228t228 154t281 56.5t281 -56.5t228 -154t153.5 -228.5t56.5 -280q0 -150 -56.5 -281t-153.5 -229t-228 -154.5t-281 -56.5t-281 56.5t-228 154.5t-153.5 229t-56.5 281zM401 553h56v170q0 41 10 68q10 23 29 34q20 12 45 13q33 0 45 -19 q14 -16 14 -55v-211h57v188q0 53 23 74q27 23 59 23q23 0 33 -9q14 -8 21 -24q6 -12 6 -47v-205h55v223q0 57 -27 82q-25 27 -75 27q-66 0 -105 -56q-10 27 -33 41t-61 15q-37 0 -59 -15q-14 -8 -23.5 -17t-19.5 -19v45h-50v-326zM920 713q0 -80 43 -123t116 -43q61 0 97 26 q39 29 51 78l-58 6q-16 -37 -34 -49q-23 -16 -56 -16q-43 0 -69 29q-29 29 -31 81h250v15q0 78 -43 125q-41 43 -109 43q-70 0 -112 -45q-45 -43 -45 -127zM983 748q0 43 29 67q26 25 65 25q45 0 70 -31q20 -23 22 -61h-186z" />
<glyph unicode="&#x26;" horiz-adv-x="1628" d="M96 717q0 150 56.5 280.5t153.5 228t228 154t281 56.5t281 -56.5t228 -154t153.5 -228.5t56.5 -280q0 -150 -56.5 -281t-153.5 -229t-228 -154.5t-281 -56.5t-281 56.5t-228 154.5t-153.5 229t-56.5 281zM512 807q0 -66 23.5 -109t80.5 -65q20 20 21.5 36.5t-6.5 34 t-18.5 35t-12.5 39.5q-6 57 21.5 111.5t77 88.5t110.5 40t123 -31q43 -25 61.5 -85t12 -123.5t-36 -116t-80.5 -62.5q-23 -4 -44.5 1t-31.5 15q-25 25 -20.5 55.5t16.5 65.5t22.5 71t-4.5 71q-12 29 -33.5 34t-44 -5.5t-40 -33t-21.5 -49.5q-4 -29 4 -54.5t8 -49.5 q0 -29 -7 -61.5t-17 -66.5t-20.5 -66.5t-14.5 -61.5q-4 -23 -6 -61.5t4 -61.5h-2h51q27 45 44.5 106.5t31.5 120.5q10 6 14 -5t10 -15q25 -18 57 -23.5t64.5 -0.5t62.5 18.5t48 29.5q55 47 79.5 130t16.5 159q-4 43 -25.5 81t-53 68.5t-73.5 50t-87 25.5q-72 8 -137.5 -8 t-116 -54t-81 -93t-30.5 -125z" />
<glyph unicode="(" horiz-adv-x="1628" d="M96 721q0 150 56.5 281t153.5 229t228.5 154.5t280.5 56.5q150 0 281 -56.5t228 -154.5t153.5 -229.5t56.5 -280.5q0 -150 -56.5 -281t-153.5 -228t-228 -153.5t-281 -56.5t-281 56.5t-228 153.5t-153.5 228t-56.5 281zM465 721q0 -72 27.5 -136.5t74.5 -111.5 t111.5 -74.5t136.5 -27.5t135.5 27.5t111.5 74.5t75.5 111.5t27.5 136.5q0 74 -27.5 137.5t-75.5 110.5t-111.5 74.5t-135.5 27.5t-136.5 -27.5t-111.5 -74.5t-74.5 -110.5t-27.5 -137.5zM535 721q0 57 21.5 108.5t60 90t89 60t109.5 21.5q57 0 108.5 -21.5t89.5 -60 t60.5 -90t22.5 -108.5t-22.5 -108.5t-60.5 -89.5t-89.5 -59.5t-108.5 -21.5q-59 0 -109.5 21.5t-89 59.5t-60 89.5t-21.5 108.5zM676 686l139 -139l139 139h-69v211h-140v-211h-69z" />
<glyph unicode=")" d="M96 719q0 150 56.5 280.5t153.5 228t228.5 154t280.5 56.5q150 0 281 -56.5t229 -154t154.5 -228.5t56.5 -280q0 -150 -56.5 -281t-154.5 -228t-229 -153.5t-281 -56.5t-281 56.5t-228 153.5t-153.5 228t-56.5 281zM346 764h154v-287q0 -14 10 -24.5t25 -10.5h350 l-109 111h-166v211h154l-209 229zM748 995l108 -110h166v-211h-156l211 -230l209 230h-153v287q0 14 -10.5 24t-24.5 10h-350z" />
<glyph unicode="," d="M96 713q0 150 56.5 280.5t153.5 229t228.5 155t280.5 56.5q150 0 281 -56.5t229 -155t154.5 -229.5t56.5 -280q0 -150 -56.5 -281t-154.5 -228.5t-229 -153.5t-281 -56t-281 56t-228 153.5t-153.5 228.5t-56.5 281zM463 813q-12 -29 2 -51q10 -25 43 -31l12 -2l166 21 q2 16 19 34l-103 74l-31 12q-33 8 -63 -10q-16 -6 -27.5 -18.5t-17.5 -28.5zM506 594l2 -12q8 -14 37 -19q29 -2 61 12l8 7l35 28l20.5 20.5t22.5 20.5l-4 8l-6 23l-92 -16q-8 -2 -16.5 -6.5t-18.5 -8.5q-37 -16 -47 -47zM618 432q0 -23 11 -39q12 -29 49 -39q29 -8 63 8 q31 14 43 48v12v45q-4 35 -6 65.5t-4 59.5q-10 2 -18 6t-19 8l-96 -114q-8 -8 -11 -16.5t-7 -16.5zM635 975.5q4 -14.5 12 -31.5l6 -12l103 -111l16 6l-22 136q-2 10 -6.5 18t-8.5 18q-20 39 -51 50q-18 6 -27 -2q-22 -12 -22 -41q-4 -16 0 -30.5zM723 707q0 -35 25 -56 q18 -23 53 -22q31 0 53 22q23 20 23 56q0 30 -23 53q-20 20 -53 20t-53 -20q-25 -25 -25 -53zM827 592l17 -98l14 -39q18 -41 51 -52q18 0 27 7q10 4 15.5 14.5t9.5 26.5q2 29 -15 59l-6 12l-31 37l-47 49l-16 -8zM829 997l2 -47l11 -129q16 -8 35 -20l102 127q10 18 16 35 l4 24q0 10 -2 20.5t-6 20.5q-16 31 -53 37q-33 12 -66 -4q-35 -20 -41 -53zM901 647l121 -98q12 -16 33 -19q33 -12 63 5q31 14 39 51l4 22q0 31 -18 49q-6 12 -17.5 20.5t-23.5 12.5l-12 2l-46 -2l-131 -10l-4 -14zM905 762l2 -4l2 -8l142 16q10 2 19 4t20 6q43 20 53 51 l2 11l-4 14q-10 23 -39 27q-35 4 -62 -11l-14 -4l-117 -98z" />
<glyph unicode="-" d="M96 719q0 150 56.5 280.5t153.5 228t228 154t281 56.5t281 -56.5t229 -154t154.5 -228.5t56.5 -280q0 -15001D14DEA95" />
<glyph unicode="." d="M96 717q0 150 56.5 280.5t153.5 229t228.5 155t280.5 56.5q150 0 281 -56.5t229 -155t154.5 -229.5t56.5 -0592B49A95" />
<glyph unicode="../../../default.htm" d="M96 717q0 150 56.5 280.5t153.5 228t228 154t281 56.5t281 -56.5t229 -154t154.5 -228.5t56.5 -280q0 -150 -56.5 -281t-154.5 -229t-229 -154.5t-281 -56.5t-281 56.5t-228 154.5t-153.5 229t-56.5 281zM434 721q0 -63 44 -108.5t108 -45.5q25 0 51 11l147 -136l414 334 v205q0 2 -1 4t-1 4l-405 -430l-64 107q10 27 10 55q0 63 -44 107t-107 44t-107.5 -44t-44.5 -107z" />
<glyph unicode="0" d="M96 725q0 150 56.5 281t153.5 228t228.5 153.5t280.5 56.5q150 0 281 -56.5t229 -153.5t154.5 -228.5t56.5 -280.5q0 -150 -56.5 -281t-154.5 -229t-229 -154.5t-281 -56.5t-281 56.5t-228 154.5t-153.5 229t-56.5 281zM455 502q63 25 116 24q43 0 75 -13t59 -30 q6 20 15 52t19.5 66t18.5 63.5t12 44.5l-12 8t-13 8q-53 25 -98 25h-12q-29 -2 -54.5 -8.5t-43.5 -12.5q-6 -4 -19 -8zM541 799q66 27 121 26q41 0 71.5 -13t54.5 -30l66 224q-10 6 -32.5 18t-43.5 16q-25 6 -55 7q-51 0 -121 -29zM764 449q14 -10 54 -28t77 -18 q29 0 61.5 7.5t71.5 23.5l62 211q-61 -18 -119 -18q-51 0 -86 13t-58 30zM848 741q63 -43 139 -43q59 0 123 29v2h4l62 217q-62 -24 -121 -24q-47 0 -83 13t-59 30z" />
<glyph unicode="1" d="M96 725q0 150 56.5 281t155 228t229.5 153.5t280 56.5q150 0 281 -56.5t228 -153.5t153.5 -228.5t56.5 -280.5q0 -150 -56.5 -281t-153.5 -229t-228 -154.5t-281 -56.5t-280.5 56.5t-229 154.5t-155 229t-56.5 281zM477 623h238v-236h203v236h237v202h-237v238h-203v-238 h-238v-202z" />
<glyph unicode="2" d="M96 717q0 147 56.5 278t152.5 228.5t226.5 154t277.5 58.5h14q147 -2 277.5 -58.5t227.5 -154t152.5 -228.5t55.5 -278q0 -150 -56.5 -281t-153.5 -228t-228 -153.5t-281 -56.5t-280.5 56.5t-229 153.5t-155 228t-56.5 281zM453 733q0 -51 35.5 -87t86.5 -36q45 0 80 29 l248 -125v-6q0 -51 36 -87t87 -36t87 36t36 87t-36 87t-87 36q-23 0 -43 -8.5t-37 -20.5l-248 123v8v6l248 125q35 -29 80 -28q51 0 87 34.5t36 87.5q0 51 -36 86t-87 35t-87 -34.5t-36 -86.5v-8l-248 -125q-37 31 -80 31q-51 0 -86.5 -36t-35.5 -87z" />
<glyph unicode="3" horiz-adv-x="1628" d="M96 719q0 150 56.5 280.5t153.5 229t228.5 155t280.5 56.5q150 0 281 -56.5t228 -155t153.5 -229.5t56.5 -0E36421AD9" />
<glyph unicode="4" horiz-adv-x="1628" d="M96 715q0 147 55.5 278t152.5 228.5t226 154t277 58.5h16q147 -2 276.5 -58.5t226.5 -154t152.5 -228.5t55.5 -278q0 -150 -56.5 -281t-153.5 -228t-228 -153.5t-281 -56.5t-281 56.5t-228 153.5t-153.5 228t-56.5 281zM467 723q0 -47 12 -90q2 2 25.5 23.5t57.5 52 t73 65.5t72.5 65.5t56 51t24.5 22.5q-2 2 -22.5 19.5t-44 39t-43 40t-21.5 20.5q-90 -45 -140 -128t-50 -181zM492 594q45 -109 145 -168v299q-4 -4 -26.5 -24.5t-49 -43t-47 -42t-22.5 -21.5zM672 406q57 -27 110 -29h66q90 8 164.5 59t115.5 135h-456v-165zM694 1049 q2 -2 21.5 -19.5t48.5 -44.5t61.5 -56.5t61 -55t48 -45t23.5 -21.5v233q-67 31 -143 31q-59 0 -121 -22zM995 608h150q18 55 18 115q0 92 -45 171t-123 126v-412z" />
<glyph unicode="5" d="M96 723q0 150 56.5 281t153.5 229t228.5 154.5t280.5 56.5q150 0 281 -56.5t229 -154.5t154.5 -229.5t56.50E6192FA83" />
<glyph unicode="6" d="M96 717q0 150 56.5 280.5t155 229t229.5 155t280 56.5q150 0 281 -56.5t228 -155t153.5 -229.5t56.5 -280q0182519A6D" />
<glyph unicode="7" d="M96 711q0 150 56.5 280.5t155 229t229.5 155t280 56.5q150 0 281 -56.5t228 -155t153.5 -229.5t56.5 -280q0DB183BA54" />
<glyph unicode="8" d="M96 721q0 150 56.5 281t155 228t229 153.5t280.5 56.5t281 -56.5t228 -153.5t153.5 -228.5t56.5 -280.5q0 -150 -56.5 -281t-153.5 -229t-228 -154.5t-281 -56.5t-280.5 56.5t-229 154.5t-155 229t-56.5 281zM530 641q25 -88 62 -140t78 -79t79.5 -35t65.5 -10 q94 4 151.5 41t88 89t40 112.5t8.5 108.5t-7 78t-4 23q2 -12 -2.5 -23t-8.5 -22q-6 -10 -14 -22q-6 51 -43 105.5t-80 97.5q-51 51 -113 98q-2 -23 -25.5 -49.5t-56 -56t-69.5 -64.5t-64 -74q-23 -31 -33 -63.5t-14 -60t-5 -46t-5 -20.5q-8 -2 -18 4q-6 4 -11 8z" />
<glyph unicode="9" d="M96 719q0 150 56.5 280.5t155 228t229.5 154t280 56.5q150 0 281 -56.5t228 -154t153.5 -228.5t56.5 -280q0FDA1DFAB4" />
<glyph unicode=":" horiz-adv-x="1634" d="M227 881q2 131 59.5 236.5t153 176t219 102t259.5 15.5q88 -10 165.5 -48t139 -95.5t100.5 -130t49 -152.5q6 -72 -1 -149.5t-30.5 -151.5t-61.5 -138.5t-89 -107.5q-37 -33 -93.5 -57.5t-117.5 -33.5t-121.5 0t-105.5 44q-6 4 -11.5 13.5t-10.5 16.5t-11 11t-14 -2 q-12 -55 -27.5 -113.5t-33 -115t-38 -107.5t-45.5 -94h-98h4q-6 20 -7 52t0 65t4 63.5t7 52.5q8 53 27.5 116t38 126.5t33 126t14.5 115.5q0 25 -5.5 48t-10.5 48t-8 50.5t1 51.5q6 49 40 92.5t76 63t83 10t65 -64.5q18 -43 14.5 -88t-17 -90t-31 -89t-26.5 -85t-5 -78 t37 -66q18 -18 60 -27.5t83 -3.5q66 12 112 63.5t73.5 122t34.5 152.5t-5 159t-46 140.5t-87 94.5q-78 47 -157 56t-150.5 -10.5t-134 -63.5t-106.5 -103.5t-66.5 -130t-14.5 -144.5q4 -43 24.5 -76.5t35 -65.5t12.5 -63.5t-39 -68.5q-109 43 -154 123t-45 207z" />
<glyph unicode="?" d="M96 719q0 150 56.5 280.5t153.5 229t228.5 155t280.5 56.5q150 0 281 -56.5t229 -155t154.5 -229.5t56.5 -280q0 -150 -56.5 -281t-154.5 -228t-229 -153.5t-281 -56.5t-281 56.5t-228 153.5t-153.5 228t-56.5 281zM471 772q0 -80 67.5 -142.5t172.5 -86.5 q-6 -23 -22.5 -63t-39.5 -54q49 4 96 16q41 10 84 34t76 65q111 23 182.5 85t71.5 146q0 49 -26.5 93t-73.5 77t-109.5 52.5t-134.5 19.5t-134.5 -19.5t-109.5 -52.5t-73.5 -77t-26.5 -93zM784 963h9q57 0 108 -15.5t89 -41t59.5 -61.5t21.5 -75q0 -55 -42 -101t-109 -69 q47 29 74.5 70t27.5 88q0 39 -18.5 73.5t-50 61.5t-74.5 45t-95 25z" />
<glyph unicode="@" d="M96 719q0 150 56.5 280.5t155 229t229.5 155t280 56.5q150 0 281 -56.5t228 -155t153.5 -229.5t56.5 -280q0 -150 -56.5 -281t-153.5 -228t-228 -153.5t-281 -56.5t-280.5 56.5t-229 153.5t-155 228t-56.5 281zM542.5 777q-3.5 -46 4.5 -92t25.5 -88t39.5 -73 q20 -31 46 -59.5t59 -26.5t52 15.5t58 13.5q18 0 32.5 -4t27 -9t25 -9.5t28.5 -4.5q35 0 57.5 26t44.5 56q25 35 35 63.5t13 32.5l-14 8q-15 7 -32.5 22.5t-32 41t-14.5 64.5q0 33 11.5 56.5t25 39.5t24.5 24.5t13 8.5q-29 43 -67.5 54t-55.5 11q-41 4 -74.5 -13t-54.5 -17 q-20 0 -49 15t-61 13q-43 0 -80 -22.5t-60 -61.5t-26.5 -85zM813 956q29 -4 56.5 10.5t43.5 37.5q41 47 35 108q-25 -2 -52.5 -15t-45.5 -36q-16 -20 -28.5 -48t-8.5 -57z" />
<glyph unicode="A" horiz-adv-x="1570" d="M100 390q6 9 19 1q145 -84 319 -132t363 -48q117 0 240.5 22.5t242.5 69.5q8 2 18.5 6t18.5 8q20 8 30.5 -7t-8.5 -25q-14 -12 -28.5 -22.5t-30.5 -18.5q-109 -66 -242 -99.5t-256 -33.5q-201 0 -373.5 68.5t-308.5 193.5q-6 5 -6 11q0 3 2 6zM477 748q0 92 43 151 t115 88q37 20 79 29.5t87 15.5q31 4 58.5 6t51.5 2v21q0 29 -1 57t-17 51q-14 18 -35.5 28.5t-44.5 10.5h-12q-39 -4 -70 -25.5t-41 -66.5q-4 -8 -9 -16t-15 -8l-146 14q-8 4 -15 10t-3 23q12 61 41.5 102t70.5 67.5t89.5 39t97.5 16.5h30q55 0 118 -17.5t106 -56.5 q27 -25 40 -54.5t18 -61t5 -66.5v-72v-233q0 -49 18.5 -78t41.5 -57q10 -23 -4 -37q-23 -20 -57 -48t-58 -48q-4 -6 -14.5 -7.5t-18.5 2.5q-39 31 -52 49.5t-32 47.5q-41 -39 -72.5 -60.5t-68.5 -31.5q-23 -6 -47.5 -10.5t-55.5 -4.5q-94 0 -157.5 57.5t-63.5 170.5z M690 774q0 -47 23.5 -76.5t68.5 -29.5h19q25 8 46 24.5t36 44.5q25 35 26.5 73t1.5 83v29q-29 0 -57.5 -1t-52.5 -8q-47 -14 -79 -45.5t-32 -93.5zM1217 367q0 6 8 12q31 20 59 31q32 8 62 10q20 1 39 2q9 0 18 -1q27 -1 44 -7t21 -13q8 -8 9 -22v-6q-4 -39 -24.5 -99.5 t-68.5 -99.5q-7 -7 -13 -7q-2 0 -4 1q-7 4 -1 12q6 16 16.5 42t17.5 52.5t9 48t-4 31.5q-10 14 -46 14q-4 0 -8 1q-32 0 -67 -4q-16 -4 -30.5 -4.5t-24.5 -2.5q-12 0 -12 9z" />
<glyph unicode="B" horiz-adv-x="1286" d="M96 600v608q0 49 36 85t87 36q49 0 85 -36t36 -85v-608q0 -51 19.5 -96t52 -78t78 -51.5t94.5 -18.5h121q51 0 96 16.5t77.5 45t51 66.5t18.5 83t-11 84t-27.5 68t-39 45t-43.5 16h-243q-51 0 -87 36t-36 87q0 49 35.5 85t87.5 36h243q76 0 142.5 -36t116 -97.5t78 -145 t28.5 -178.5q0 -94 -38 -177t-104.5 -145.5t-155.5 -98t-189 -35.5h-121q-102 0 -190.5 38.5t-155 105.5t-104.5 156t-38 189z" />
<glyph unicode="C" horiz-adv-x="1490" d="M96 586v178q0 10 9.5 19.5t19.5 9.5h313l-135 -236h-178q-10 0 -19.5 7t-9.5 22zM199 166l14 119q0 10 9 14t18 0l77 -45q20 -16 5 -33l-101 -65q-10 -10 -16 -5t-6 15zM252 350q-1 4 -1 8q0 8 3 15l358 618q4 10 16.5 13.5t24.5 -0.5l76 -46q12 -6 14 -18t-2 -22 l-358 -619q-4 -10 -16.5 -13t-24.5 1l-76 45q-12 6 -14 18zM616 557l136 236h77l111 -236h-324zM710 1254q-4 18 -4 30q0 17 9 21q2 1 4 1q9 0 27 -25q22 -30 49.5 -76t58.5 -100t59 -99q27 -43 67 -113t77 -140.5t65.5 -126t34.5 -69.5q8 -12 7 -23.5t-8 -20.5t-17.5 -16.5 t-18.5 -9.5q-16 -6 -27.5 -10t-33.5 6q-8 4 -25.5 34t-39 74t-46 97t-46 103.5t-40 92.5t-28.5 64q-16 35 -42 92.5t-48.5 113.5t-33.5 100zM1092 793h276q14 0 21.5 -9.5t7.5 -19.5v-178q0 -29 -29 -29h-156q-4 4 -5 12.5t-5 12.5q-4 6 -10 19t-16 36q-16 29 -38 70t-46 86 zM1107 418q3 12 17 20l45 23q5 3 12 3q5 0 11 -2q12 -5 16 -16l37 -69q12 -29 -10 -49l-33 -19q-10 -4 -22.5 -2t-22.5 15l-43 73q-8 8 -8 17q0 3 1 6zM1198 264q10 20 19 27q28 15 48 15q17 0 27 -10q24 -22 31 -58q5 -29 5 -68q0 -19 -1 -41q-4 10 -17.5 17.5t-30.5 15.5 t-35.5 19.5t-31.5 29.5q-18 23 -18 40q1 7 4 13z" />
<glyph unicode="D" horiz-adv-x="1388" d="M96 719q0 123 47 232.5t128 190.5t189.5 128t233.5 47t233.5 -47t190.5 -128t129 -190.5t47 -232.5q0 -125 -47 -234.5t-129 -190.5t-190.5 -128t-233.5 -47t-233.5 47t-189.5 128t-128 190.5t-47 234.5zM197 694q2 -90 36.5 -170t94.5 -143q76 115 182 195.5t235 123.5 q-10 16 -17 36t-13 36q-111 -41 -222.5 -61.5t-226.5 -20.5q-16 0 -33.5 2t-35.5 2zM199 793h67q102 0 204 17t202 54q-84 156 -207 297q-104 -55 -175 -151.5t-91 -216.5zM401 311q139 -92 293 -92q41 0 80 5t78 20q-8 94 -26.5 185t-47.5 177q-117 -41 -212 -116 t-165 -179zM565 1198q117 -145 199 -297q145 63 276 176q-70 66 -158.5 103t-187.5 37q-66 0 -129 -19zM807 809q10 -20 17.5 -41t17.5 -41q41 8 82 13t80 5q47 0 94 -7t96 -19q0 76 -23.5 146.5t-64.5 133.5q-141 -119 -299 -190zM874 631q29 -84 46.5 -169t27.5 -173 q92 53 152.5 139t83.5 193q-47 10 -91 16t-89 6q-67 0 -130 -12z" />
<glyph unicode="E" horiz-adv-x="1644" d="M96 268v903h436q164 0 236 -96q41 -57 41 -135q0 -86 -45 -133q-10 -16 -26.5 -28.5t-39.5 -22.5q33 -14 59.5 -34t43.5 -48q37 -59 37 -133t-41 -144q-29 -43 -66 -69q-20 -16 -46 -27.5t-54 -21.5q-29 -4 -60.5 -7.5t-68.5 -3.5h-406zM303 426h193q61 0 92 16 q59 27 59 113q0 70 -59 96q-14 10 -37 12.5t-51 2.5h-197v-240zM303 817h193q31 0 53.5 6.5t42.5 16.5q37 20 37 78q0 61 -49 83q-23 6 -47.5 10.5t-59.5 4.5h-170v-199zM907 614q0 164 90 258q86 88 232 89q82 0 151 -29q33 -16 60.5 -39t50.5 -57q18 -31 31.5 -64 t19.5 -72q4 -23 6 -54.5t2 -72.5h-473q0 -49 18.5 -82.5t49.5 -52.5q34 -26 88 -26h4q53 0 94 30q23 14 35 43h172q-6 -59 -61 -116q-41 -47 -103.5 -70t-140.5 -23q-129 0 -229 76q-96 82 -97 262zM1044 1042v93h361v-93h-361zM1081 684h291q-6 63 -43 104q-45 33 -100 33 q-68 0 -103 -37q-33 -39 -45 -100z" />
<glyph unicode="F" horiz-adv-x="862" d="M96 674v239h193v119q0 66 22.5 123t61.5 99t91 67t111 25h193v-236h-193q-16 0 -31.5 -21.5t-15.5 -52.5v-123h240v-239h-240v-582h-239v582h-193z" />
<glyph unicode="G" horiz-adv-x="854" d="M96 358q0 66 36 119t97 88q-22 52 -22 107q0 66 26 119q-47 39 -75.5 93t-28.5 120q0 57 21.5 107t58.5 88t87 59.5t105 21.5q41 0 76 -12.5t70 -34.5l198 110v-184l-96 -51q14 -16 25.5 -46t11.5 -58q0 -57 -21.5 -107.5t-59.5 -88.5t-88 -59.5t-107 -21.5h-9 q-4 0 -7 -20.5t-3 -34.5q0 -31 10 -56h27q70 0 130 -20.5t105.5 -55t71 -81.5t25.5 -101q0 -53 -25.5 -100t-71 -82t-105.5 -55.5t-130 -20.5t-130 20.5t-105.5 55.5t-71 82t-25.5 100zM281 358q0 -41 43 -69.5t104 -28.5t104 28.5t43 69.5t-43 71t-104 30t-104 -30t-43 -71 zM281 1004q0 -55 38 -92.5t91 -37.5t91 37t38 93q0 53 -38 91t-91 38t-91 -38t-38 -91z" />
<glyph unicode="H" horiz-adv-x="1427" d="M96 991q0 70 27 132.5t72 107.5t106 71.5t133 26.5q106 0 184 -55q23 6 46.5 7t46.5 1q117 0 220 -44t180 -121t122 -179t45 -219v-40t-2 -38q57 -86 57 -192q0 -72 -26.5 -133.5t-71.5 -106.5t-107.5 -71.5t-132.5 -26.5q-100 0 -180 51q-53 -12 -104 -12 q-117 0 -220.5 45t-180.5 121.5t-122 181t-45 221.5q0 23 1 44t8 44q-29 39 -42.5 86t-13.5 98zM372 522q-2 -8 -2 -15q0 -18 8 -40q11 -31 42 -61q29 -29 60.5 -49.5t71.5 -35t91 -19.5q28 -3 62 -3q27 0 57 2q70 2 131 30.5t103 74t56 100.5q5 20 6 41q0 35 -16 71 q-23 57 -65.5 91t-97 54.5t-116 33t-122.5 28.5q-61 14 -79.5 45t-4.5 61t53 52.5t90 22.5q49 -2 86 -23.5t67 -47.5t53.5 -45.5t43.5 -17.5q23 2 41.5 19.5t24.5 42t-3 54.5t-44 59q-59 53 -139 77q-57 17 -132 18q-31 0 -65 -3q-45 -4 -88 -21.5t-78 -47.5t-57.5 -74 t-26.5 -101q-1 -10 -1 -20q0 -45 22 -80q28 -43 74 -74t103.5 -49.5t110.5 -26.5q37 -6 78 -18.5t67.5 -30.5t34.5 -45q1 -5 1 -11q0 -23 -25 -51q-29 -33 -68 -42q-27 -6 -53 -6q-11 0 -23 1q-36 4 -68 16.5t-46 20.5t-28.5 25.5t-33 35t-39 31t-47.5 11.5q-29 -2 -47 -19 t-23 -41z" />
<glyph unicode="I" horiz-adv-x="1232" d="M96 1243q0 59 40.5 101t99.5 42t100 -41.5t41 -101.5q0 -59 -41 -100t-100 -41t-99.5 41t-40.5 100zM121 225v793h229v-793h-229zM461 225v793h229v-37q59 29 130 30q9 0 18 -1q82 -4 147 -37q70 -39 112 -113t42 -151v-484h-226v484q0 16 -12 38.5t-27 26.5 q-29 15 -56 15q-6 0 -12 -1q-32 -4 -58 -16q-31 -14 -58 -39v-508h-229z" />
<glyph unicode="J" horiz-adv-x="1886" d="M98 532q2 57 18.5 117t54.5 117t101.5 108.5t159.5 92.5l-100 198l243 31l82 -166q6 0 15 2q158 27 289 28h15q122 0 224 -16q109 -16 195 -45.5t151 -64.5q154 -82 246 -203l-778 -221l-180 364q57 9 111 9q8 0 16 -1q61 -1 116 -12l74 -139l264 70q-94 61 -207 98 q-96 33 -224 45q-29 3 -59 3q-101 0 -212 -32l213 -432l-779 -225q-50 124 -50 241q0 17 1 33zM346 616q-2 -15 -2 -30q0 -36 14 -70l258 72l-114 235q-84 -53 -117 -107t-39 -100z" />
<glyph unicode="K" horiz-adv-x="1636" d="M96 590v766h262v-373q94 53 212 82t249 29q150 0 281 -39t229 -105.5t155.5 -155.5t57.5 -190q0 -102 -57.0F7F0C0A58" />
<glyph unicode="L" horiz-adv-x="1572" d="M248 342q14 -2 28.5 -2h30.5q176 0 305 104q-82 2 -144 50.5t-85 121.5q25 -6 45 -6q18 0 33.5 2t32.5 6q-0228374A93" />
<glyph unicode="M" horiz-adv-x="1259" d="M96 590v244q0 59 39 99t98 40q47 0 82 -30t47 -77q29 35 68 54.5t86 19.5q70 0 123 -42t70 -105q73 73 185024F85DA1C" />
<glyph unicode="N" horiz-adv-x="1626" d="M96 719q0 66 24.5 123t67.5 99t99.5 66.5t122.5 24.5t123 -24.5t99 -66.5t66.5 -99.5t24.5 -122.5q0 -66 -24.5 -123t-66.5 -99t-99.5 -66.5t-122.5 -24.5q-66 0 -122.5 24.5t-99.5 66.5t-67.5 99t-24.5 123zM907 719q0 66 24.5 123t67.5 99t100 66.5t120 24.5 t120.5 -24.5t100.5 -66.5t67.5 -99.5t24.5 -122.5q0 -66 -24.5 -123t-67.5 -99t-100.5 -66.5t-120.5 -24.5t-120 24.5t-100 66.5t-67.5 99t-24.5 123z" />
<glyph unicode="O" horiz-adv-x="835" d="M96 809v145q31 10 61.5 24.5t53.5 33.5q41 33 70 90q14 25 22 56.5t14 72.5h144v-238h239v-184h-239v-264q0 -45 1 -70.5t7 -40.5q10 -25 41 -45q16 -10 34.5 -14t41.5 -4q41 0 78.5 11t76.5 38v-164q-70 -29 -118 -43q-55 -12 -117 -12q-37 0 -59.5 5t-51.5 13 q-53 18 -92 53q-43 33 -51 70q-16 31 -16 107v360h-140z" />
<glyph unicode="P" horiz-adv-x="1431" d="M96 217l248 1135h557q61 0 123.5 -23.5t108 -71t65.5 -119.5q10 -36 11 -79q0 -44 -11 -94q-18 -86 -61 -156t-103.5 -118t-136.5 -73.5t-160 -25.5h-231l-82 -375h-328zM225 80l15 59h274l80 375h233q84 0 160 25.5t136.5 74t103.5 118t61 155.5q10 49 10 91q0 15 -1 29 q-5 54 -25 97q41 -47 58 -116q8 -32 7 -69q0 -44 -10 -94q-18 -88 -62 -156.5t-104.5 -116.5t-136.5 -73.5t-158 -25.5h-235l-78 -373h-328zM551 809h154h8q59 4 111.5 48t68.5 108q0 10 4 14q3 11 3 22q0 5 -1 11q-2 16 -6 30q-10 33 -40 55.5t-71 22.5h-161z" />
<glyph unicode="Q" horiz-adv-x="1363" d="M98 782q4 119 54.5 224.5t132.5 184.5t189.5 125t227.5 46q121 0 225.5 -46t181.5 -125t120 -185q39 -96 30657C82A6E" />
<glyph unicode="R" horiz-adv-x="1441" d="M96 264q0 70 48 118t118 48t118 -48t48 -118t-48 -118t-118 -48t-118 48.5t-48 117.5zM96 686v240q170 0 30BA3822AFE" />
<glyph unicode="S" horiz-adv-x="1667" d="M96 506v203h254v-203q0 -33 21.5 -56.5t56.5 -23.5q33 0 54.5 23.5t21.5 56.5v461q0 68 25.5 128t70.5 1050B9504CABC" />
<glyph unicode="T" horiz-adv-x="1093" d="M96 641v502q0 59 41 99t99 40q61 0 101 -40t40 -99v-139h483q57 0 98 -42t41 -104q0 -57 -40.5 -98t-98.5 -41h-483v-78q0 -41 14.5 -79t39 -66.5t56 -45t66.5 -16.5h309q59 0 98 -39t39 -100q0 -59 -40.5 -99t-98.5 -40h-313q-92 0 -174 37.5t-143.5 104.5t-97.5 155 t-36 188z" />
<glyph unicode="U" horiz-adv-x="1396" d="M96 506v444q0 80 30 149.5t82 122t120.5 83t148.5 30.5h268q37 -4 81 -21.5t85 -45t76 -64.5t53 -80q6 -1007A24CBACB" />
<glyph unicode="V" horiz-adv-x="1613" d="M96 1012q70 80 144 147q63 57 137.5 109.5t144.5 66.5q17 3 32 3q29 0 51 -12q34 -19 57.5 -57t38 -91.5t24.5 -110.5t18.5 -114.5t18.5 -104.5q37 -135 62.5 -209t56.5 -74t83 68.5t115 185.5q32 59 32 114q-1 49 -23 79q-24 30 -68 34q-5 0 -10 1q-42 0 -97 -33 q16 98 71.5 169.5t129.5 112.5q74 40 153 50q19 2 38 3q56 0 101 -22q60 -29 93 -97q20 -42 20 -100q0 -37 -8 -79q-18 -113 -65 -218.5t-109.5 -199.5t-133 -176t-137.5 -145.5t-123 -108.5t-89 -66q-46 -31 -89 -31h-6q-46 2 -86 26t-70 59.5t-46 70.5q-12 27 -32.5 87.5 t-45 136t-49 158.5t-47.5 153.5t-41 121t-29 62.5q-16 18 -42.5 13t-53.5 -19q-31 -16 -63 -41z" />
<glyph unicode="W" horiz-adv-x="1441" d="M96 713q0 70 15.5 132t40.5 122l299 -815q-78 37 -143.5 95t-113 130t-73 158t-25.5 178zM201 1055q84 1290038CE8AC7" />
<glyph unicode="X" horiz-adv-x="1261" d="M96 571v74h269v-74h-93v-450h-84v450h-92zM180 1329h96l66 -231h4l64 231h98l-115 -338v-239h-98v227zM397 184v324h78v-295q0 -8 2 -13t2 -10q4 -4 19 -4q4 0 8 1t14 8q12 8 21 18v295h77v-387h-77v45q-23 -29 -43 -37q-23 -12 -45 -12q-29 0 -41 14q-14 23 -15 53z M516 858v221q0 49 33 82q20 14 42.5 21.5t53.5 7.5q55 0 88 -33q16 -14 24.5 -34.5t8.5 -43.5v-221q0 -57 -33 -84q-35 -35 -92 -35t-92 35q-33 31 -33 84zM604 850q0 -12 8 -25q9 -12 29 -12q14 0 27 12q10 10 10 25v233q0 16 -10 23q-14 10 -27 10q-20 0 -27 -10 q-10 -6 -10 -23v-233zM678 121v524h78v-166q8 8 16 14.5t16 10.5q8 6 17.5 7t19.5 1q33 0 56 -23q8 -14 13 -31.5t5 -41.5v-213q0 -23 -5 -38t-13 -26q-16 -23 -52 -22q-20 0 -41 8q-8 4 -16 10t-16 15v-29h-78zM756 195q6 -8 18 -15q4 0 8 -2t11 -2q8 0 12 3t10 7q2 4 2 27 v199q0 23 -6 30q-6 10 -23 11q-6 0 -9 -2t-9 -2q-4 -4 -7 -5.5t-7 -5.5v-243zM836 821v359h90v-330q0 -18 2 -21q8 -8 18 -8t27 10q14 6 26 23v326h88v-428h-88v47q-12 -14 -25 -22.5t-28 -18.5q-10 -4 -23.5 -9.5t-23.5 -5.5q-31 0 -47 23q-6 8 -11 21.5t-5 33.5zM940 231 v175q0 47 33 79q33 33 84 33q53 0 82 -29q14 -16 21 -35.5t7 -47.5v-101h-147v-74q0 -33 8 -41q6 -10 27 -10q8 0 14 2t10 4q6 6 7 17.5t1 27.5v19h80v-19q0 -57 -28 -92q-28 -28 -84 -28h-4q-49 0 -82 32q-29 35 -29 88zM1020 369h67v37q0 20 -8 36q-4 2 -10 4.5t-14 2.5 q-10 0 -16.5 -2.5t-10.5 -4.5q-6 -6 -7 -16t-1 -20v-37z" />
<glyph unicode="Y" horiz-adv-x="1904" d="M96 1124v109h764v-8l2 -4l-2 -15v-82h-229q39 -55 84 -115.5t88 -116.5t80 -104.5t61 -78.5l305 276h-184l-25 107h670l-2 -7h2l-47 -71h-4l-19 -29h-120q-14 -4 -24.5 -6t-16.5 -2q-12 -2 -48 -26.5t-84.5 -60.5t-102.5 -80t-100 -86t-79 -77t-39 -53q-2 -8 -2 -52 t1 -95.5t3 -97.5t4 -60q10 -2 44 -2h74h75t47 -2l-4 -78q-12 2 -57.5 3t-103.5 1h-120.5h-112.5q-27 0 -74.5 -1t-101 -3t-101.5 -3t-73 -1l11 73q14 2 45.5 2.5t66.5 1.5t65.5 7t43.5 20q6 6 8 45t2 88t-2 93.5t-4 60.5q-2 10 -30 49t-68.5 91t-91 113.5t-98.5 117 t-88 98.5t-62 61h-226zM1571 215v111l65 -9l60 -4l-15 -110l-59 4zM1585 879q10 -4 44 -7.5t72 -7.5t70.5 -6t38.5 -2l-118 -465l-103 8z" />
<glyph unicode="Z" horiz-adv-x="1146" d="M96 274q31 8 72 24.5t84 46.5t82.5 74t68.5 105q4 6 7.5 24.5t7.5 57.5q10 135 50 215t124 123q18 -10 40.075B902A6E" />
<glyph unicode="a" d="M96 719q0 150 56.5 280.5t155 228t229.5 154t280 56.5q150 0 281 -56.5t228 -154t153.5 -228.5t56.5 -280q0 -150 -56.5 -281t-153.5 -229t-228 -154.5t-281 -56.5t-280.5 56.5t-229 154.5t-155 229t-56.5 281zM435 544q-1 -2 -1 -3q0 -3 4 -6q76 -70 172.5 -108 t206.5 -38q68 0 142.5 18.5t134.5 55.5q10 4 17 10t15 12q10 6 4 14.5t-16 4.5q-4 -2 -10 -4t-10 -4q-66 -27 -134.5 -39.5t-134.5 -12.5q-104 0 -201.5 27t-177.5 74q-8 4 -11 -1zM645 743q0 -63 35 -95t88 -32q16 0 30.5 2.5t26.5 6.5q39 12 78 51q10 -16 17.5 -26.5 t29.5 -26.5q12 -4 19 2q14 10 32.5 26.5t30.5 26.5q10 10 2 20q-12 16 -22.5 31.5t-10.5 44.5v129q0 41 -3 77t-31 64q-25 23 -60 32t-65 9h-17q-27 -2 -53.5 -9t-50 -21.5t-39.5 -38t-23 -55.5q-4 -14 11 -19l80 -8q10 0 14 14q6 25 22.5 36t38.5 15h6q30 1 46 -22 q10 -12 10 -27.5v-31.5v-13q-14 0 -29.5 -1t-32.5 -3q-25 -4 -48 -9t-44 -15q-41 -16 -64.5 -49t-23.5 -85zM764 758q0 35 17.5 52t43.5 26q14 4 29.5 4h32.5v-17q0 -25 -1 -45t-16 -41q-14 -29 -45 -39h-10q-25 0 -38 16.5t-13 43.5zM1063 526q6 2 13 2t18 2q23 2 42 2 t25 -8q4 -6 2 -18t-6 -26.5t-9 -29t-9 -22.5q-4 -4 1 -6q2 -1 3 -1q3 0 6 3q27 23 38 55.5t13 55.5v4q0 8 -4 12q-4 8 -36 11q-7 1 -15 1q-25 0 -51 -8q-10 -4 -17.5 -8t-15.5 -8q-5 -3 -5 -7q0 -6 7 -6z" />
<glyph unicode="b" d="M96 721q0 147 55.5 277t152.5 227.5t227.5 155t277.5 59.5h14q147 -2 277.5 -59.5t226.5 -155t152.5 -227.5t56.5 -277q0 -150 -56.5 -281t-154.5 -229t-229 -154.5t-281 -56.5t-281 56.5t-228 154.5t-153.5 229t-56.5 281zM528 653q0 -55 21.5 -105t58.5 -87t86 -58.5 t105 -21.5h67q55 0 104.5 20.5t86.5 54t58.5 80t21.5 99.5t-15.5 99t-43 81t-64.5 54.5t-80 19.5h-135q-29 0 -48.5 -19.5t-19.5 -48.5t19.5 -48t48.5 -19h135q25 0 46 -34t21 -85q0 -49 -38.5 -83t-96.5 -34h-67q-55 0 -95 39t-40 96v338q0 29 -19.5 48.5t-48.5 19.5 t-48.5 -19.5t-19.5 -48.5v-338z" />
<glyph unicode="c" d="M96 719q0 150 56.5 280.5t155 228t229.5 154t280 56.5q150 0 281 -56.5t228 -154t153.5 -228.5t56.5 -280q0 -150 -56.5 -281t-153.5 -229t-228 -154.5t-281 -56.5t-280.5 56.5t-229 154.5t-155 229t-56.5 281zM455 645q0 -16 16 -16h98l76 131h-174q-16 0 -16 -17v-98z M512 412q0 -16 12 -6l56 36q10 10 -2 19l-43 24q-4 4 -9.5 1t-5.5 -9zM543 526q-3 -6 -3 -10q0 -8 9 -12l43 -25q16 -8 22 6l199 344q8 16 -6 23l-43 25q-16 8 -23 -7zM743 629h181l-62 131h-43zM797 1016q6 -24 18 -55t26.5 -64t22.5 -51t26.5 -60.5t38 -84.5t37 -75.5 t23.5 -37.5q12 -6 18.5 -4t16.5 6t20.5 14t-0.5 25q-4 8 -19 38.5t-35.5 69.5t-43 78t-37.5 64q-16 25 -32.5 54.5t-32 56t-27.5 41.5q-11 13 -17 13h-1q-5 -2 -5 -11q0 -7 3 -17zM1008 760q14 -25 25 -47.5t22 -38.5q4 -12 8 -19.5t6 -11.5q4 -4 4 -7t2 -7h86q16 0 17 16 v98q0 16 -17 17h-153zM1020 539l24 -41q10 -14 25 -6l18 10q12 10 7 26l-21 39q-5 11 -13 11q-4 0 -9 -3l-25 -12q-10 -6 -10 -14q0 -5 4 -10zM1067 466q-2 -3 -2 -7q0 -9 10 -23q14 -20 37 -26.5t27 -18.5q2 14 2 26q0 19 -4 34q-3 19 -17 33q-6 6 -15 6q-11 0 -28 -9 q-4 -4 -10 -15z" />
<glyph unicode="d" d="M96 719q0 150 56.5 280.5t153.5 228t228.5 154t280.5 56.5q150 0 281 -56.5t229 -154t154.5 -228.5t56.5 -0A9A21DA2F" />
<glyph unicode="e" d="M96 721q0 147 56.5 277t152.5 227.5t226.5 155t277.5 59.5h14q147 -2 277.5 -59.5t227.5 -155t152.5 -227.5t55.5 -277q0 -150 -56.5 -281t-153.5 -229t-228 -154.5t-281 -56.5t-280.5 56.5t-229 154.5t-155 229t-56.5 281zM414 469h225q37 0 72 6q16 4 30.5 10.5 t24.5 16.5q23 16 37 39q22 37 22 77q0 42 -20 76q-16 29 -57 45q27 12 36 29q25 27 25 74q0 43 -23 76q-41 53 -131 53h-241v-502zM528 557v133h109q35 0 49 -8q33 -14 33 -53q0 -49 -33 -64q-16 -8 -51 -8h-107zM528 774v111h95q18 0 32.5 -2t26.5 -6q27 -12 27 -48 q-1 -31 -21 -43q-23 -12 -53 -12h-107zM864 662q0 -100 54 -146q55 -43 126 -43q90 0 136 51q33 35 34 66h-96q-6 -16 -18 -25q-23 -16 -53 -16q-31 0 -52 14q-37 23 -37 76h263q0 23 -1 40t-3 30q-6 39 -29 75q-23 33 -62 54q-39 16 -84 16q-80 0 -129 -49 q-49 -53 -49 -143zM940 899h201v51h-201v-51zM961 700q6 33 24 56q20 20 57 20q31 0 56 -18q23 -23 24 -58h-161z" />
<glyph unicode="f" horiz-adv-x="1628" d="M96 719q0 150 56.5 280.5t153.5 229t228.5 155t280.5 56.5q150 0 281 -56.5t228 -155t153.5 -229.5t56.5 -280q0 -150 -56.5 -281t-153.5 -228t-228 -153.5t-281 -56.5t-281 56.5t-228 153.5t-153.5 228t-56.5 281zM629 694h106v-323h133v323h133v133h-133v68 q0 16 8.5 28.5t18.5 12.5h106v131h-106q-66 0 -113 -51t-47 -123v-66h-106v-133z" />
<glyph unicode="g" horiz-adv-x="1628" d="M96 723q0 150 56.5 281t153.5 228t228.5 153.5t280.5 56.5q150 0 281 -56.5t228 -153.5t153.5 -228.5t56.506AD571A04" />
<glyph unicode="h" d="M96 719q0 150 56.5 280.5t155 228t229.5 154t280 56.5q150 0 281 -56.5t228 -154t153.5 -228.5t56.5 -280q0 -150 -56.5 -281t-153.5 -228t-228 -153.5t-281 -56.5t-280.5 56.5t-229 153.5t-155 228t-56.5 281zM473 870q0 -59 31 -102q-4 -12 -4 -24.5v-24.5 q0 -66 24.5 -123t67.5 -100t100.5 -68t122.5 -25q29 0 57 7q45 -29 101 -29q39 0 73.5 14.5t60.5 40t40 60t14 73.5q0 57 -33 107q2 10 2 21.5v21.5q0 63 -24.5 120.5t-67.5 100.5t-100 67.5t-123 24.5h-25.5t-25.5 -4q-43 31 -102 31q-39 0 -74 -14.5t-60.5 -40t-40 -60.5 t-14.5 -74zM626 610q8 30 40 32q14 0 26.5 -6.5t21.5 -16t17.5 -19.5t16.5 -14t25.5 -11.5t37.5 -9.5t41.5 3t38.5 24q16 18 13 33.5t-18.5 26t-38 16.5t-42.5 10q-31 4 -62.5 15.5t-57.5 27.5t-41 40.5t-11 55.5q4 66 46 98.5t93 36.5q20 2 38 2q41 0 71 -10q43 -14 77 -43 q18 -16 24.5 -32.5t2.5 -30t-14 -22.5t-23 -11q-12 -2 -24.5 9t-29.5 25.5t-37.5 27t-47.5 12.5q-29 0 -50.5 -12.5t-29.5 -30t2 -34t45 -24.5q33 -8 68 -15t64.5 -18.5t54 -31t36.5 -49.5q9 -20 9 -40q0 -12 -3 -23q-8 -32 -31.5 -56.5t-57 -40t-72.5 -17.5q-16 -1 -30 -1 q-55 0 -87 12q-41 16 -74 47q-28 28 -28 53q-1 6 1 12z" />
<glyph unicode="i" d="M96 721q0 150 56.5 281t153.5 228t228.5 153.5t280.5 56.5q150 0 281 -56.5t229 -153.5t154.5 -228.5t56.5 -280.5q0 -150 -56.5 -281t-154.5 -229t-229 -154.5t-281 -56.5t-281 56.5t-228 154.5t-153.5 229t-56.5 281zM535 1049q0 -33 22.5 -55.5t54.5 -22.5 q33 0 55.5 22.5t22.5 55.5t-22.5 56t-55.5 23t-55 -23.5t-22 -55.5zM549 483h127v441h-127v-441zM737 483h127v283q14 14 33 22q14 6 32.5 8.5t37.5 -8.5q8 -4 15 -15t7 -21v-269h125v269q0 43 -23.5 84t-62.5 63q-35 19 -81 21h-11q-40 0 -72 -17v21h-127v-441z" />
<glyph unicode="j" horiz-adv-x="1628" d="M96 719q0 147 55.5 277t152.5 227.5t226 155t277 59.5h16q147 -2 276.5 -59.5t226.5 -155t152.5 -227.5t55.5 -277q0 -150 -56.5 -281t-153.5 -229t-228 -154.5t-281 -56.5t-281 56.5t-228 154.5t-153.5 229t-56.5 281zM395 621v-16q0 -67 29 -138l432 125l-119 239 q61 18 117 18q17 0 34 -2q70 -7 124 -24q63 -23 116 -55l-147 -39l-41 78q-31 6 -64 7h-10q-29 0 -61 -5l100 -203l432 123q-53 68 -137 113q-74 39 -192 62q-51 9 -113 9q-81 0 -180 -16q-4 -2 -8 -2l-45 92l-136 -16l56 -111q-53 -23 -89 -51.5t-56.5 -59t-30 -64.5 t-11.5 -64zM535 666q4 25 21 55.5t65 58.5l63 -131l-143 -39q-7 19 -7 40q0 8 1 16z" />
<glyph unicode="k" d="M96 719q0 147 55.5 278t152.5 228.5t227.5 154t277.5 58.5h14q147 -2 277.5 -58.5t227.5 -154t152.5 -228.04EDCC4A1C" />
<glyph unicode="l" d="M96 719q0 150 56.5 280.5t155 228t229 154t280.5 56.5t281 -56.5t228 -154t153.5 -228.5t56.5 -280q0 -150 -56.5 -281t-153.5 -228t-228 -153.5t-281 -56.5t-280.5 56.5t-229 153.5t-155 228t-56.5 281zM496 481q47 -31 104 -48t119 -17q100 0 178 38t130 97t79 133 t27 147v19q23 16 41 36t32 40q-20 -8 -40.5 -13t-43.5 -10q23 14 39.5 34.5t26.5 45.5q-23 -10 -46.5 -20.5t-49.5 -14.5q-18 23 -45 35t-60 12q-59 0 -102 -43t-43 -104q0 -12 4 -33q-92 4 -169 45t-132 109q-18 -35 -19 -74q0 -82 64 -121q-37 0 -66 17v-3q0 -53 33 -93 t82 -50q-8 -2 -17.5 -3t-21.5 -1q-8 0 -25 4q12 -43 49.5 -71.5t86.5 -30.5q-78 -61 -181 -62h-34z" />
<glyph unicode="m" d="M96 719q0 150 56.5 280.5t153.5 228t228 154t281 56.5t281 -56.5t229 -154t154.5 -228.5t56.5 -280q0 -150 -56.5 -281t-154.5 -228t-229 -153.5t-281 -56.5t-281 56.5t-228 153.5t-153.5 228t-56.5 281zM518 647h119v-117h178v-155h297v278q0 61 -44 104.5t-105 43.5 q-63 0 -105 -41q-10 35 -38.5 58.5t-67.5 23.5q-51 0 -86 -41q-6 27 -25.5 43t-46.5 16q-33 0 -54.5 -22.5t-21.5 -55.5v-135zM526 954q0 -29 18.5 -47t45.5 -18t45 18.5t18 46.5q0 27 -18 45.5t-45 18.5t-45.5 -18.5t-18.5 -45.5zM668 954q0 -35 24.5 -59.5t59.5 -24.5 t59.5 25t24.5 59q0 35 -24.5 59.5t-59.5 24.5t-59.5 -24.5t-24.5 -59.5zM854 954q0 -47 32 -78.5t77 -31.5q47 0 77.5 31.5t30.5 78.5q0 45 -30.5 77t-77.5 32q-45 0 -77 -32t-32 -77z" />
<glyph unicode="n" d="M96 719q0 150 56.5 280.5t155 228t229.5 154t280 56.5q150 0 281 -56.5t228 -154t153.5 -228.5t56.5 -280q0E96ECAA77" />
<glyph unicode="o" d="M96 717q0 147 55.5 277t152.5 227.5t227.5 155t277.5 59.5h14q147 -2 277.5 -59.5t226.5 -155t152.5 -227.5t56.5 -277q0 -150 -56.5 -281t-154.5 -229t-229 -154.5t-281 -56.5t-281 56.5t-228 154.5t-153.5 229t-56.5 281zM637 768h78v-201q0 -43 8 -59q6 -18 29 -39 q25 -20 51 -29q16 -4 28.5 -7t32.5 -3q35 0 66 6q33 10 65 25v90q-41 -27 -86 -27q-29 0 -43 11q-14 8 -22 24q-4 10 -4 62v147h133v102h-133v131h-80q-6 -47 -21 -71q-16 -33 -39 -49q-12 -10 -29.5 -18.5t-33.5 -14.5v-80z" />
<glyph unicode="p" d="M96 715q0 150 56.5 280.5t153.5 228t228.5 154t280.5 56.5q150 0 281 -56.5t229 -154t154.5 -228.5t56.5 -280q0 -150 -56.5 -281t-154.5 -228t-229 -153.5t-281 -56.5t-281 56.5t-228 153.5t-153.5 228t-56.5 281zM471 438h182l45 209h129q94 0 164 54.5t92 152.5 q6 28 6 52t-6 44q-12 41 -36.5 66.5t-59.5 39t-69 13.5h-310zM543 362h182l43 207h131q92 0 162.5 54.5t93.5 152.5q5 28 5 52q0 21 -4 39q-9 38 -32 65q14 -32 14 -71q0 -24 -5 -50q-20 -98 -91 -152.5t-165 -54.5h-129l-46 -209h-151zM723 768l39 172h90q23 0 39 -12.5 t22 -30.5q3 -13 3 -24q0 -6 -1 -11q-2 -2 -2 -8q-10 -35 -37.5 -59.5t-62.5 -26.5h-4h-86z" />
<glyph unicode="q" d="M96 719q0 150 56.5 280.5t155 228t229 154t280.5 56.5t281 -56.5t228 -154t153.5 -228.5t56.5 -280q0 -150 -56.5 -281t-153.5 -229t-228 -154.5t-281 -56.5t-280.5 56.5t-229 154.5t-155 229t-56.5 281zM492 754v-11q0 -62 22 -115q23 -59 66 -102t100 -68.5t125 -25.5 q51 0 92 14q16 -27 35 -47q23 -27 45 -33q17 -4 34 -4h11q23 2 49 15v55q-10 -2 -24 4q-12 4 -29 15.5t-33 33.5q68 43 110 113t46 156v10q0 61 -21 114q-24 58 -67 102t-100.5 69.5t-125.5 25.5t-127 -25.5t-105 -69.5t-73.5 -102.5t-29.5 -123.5zM653 760q2 49 17.5 91 t39 74.5t54 51t65.5 18.5t65 -18.5t51.5 -51t33.5 -74.5q10 -36 10 -77v-14q-2 -53 -18.5 -98.5t-42.5 -77.5q-23 35 -48.5 46t-48.5 13q-25 2 -51 -8v-55q10 2 21 0q10 -2 19 -6.5t20 -16.5q4 -6 7 -13t7 -14q-18 -8 -41 -8q-35 0 -64.5 18.5t-51 51.5t-33.5 76 q-11 37 -11 79v13z" />
<glyph unicode="r" d="M96 715q0 147 56.5 278t152.5 228.5t226.5 154t277.5 58.5h14q147 -2 277.5 -58.5t227.5 -154t152.5 -228.5t55.5 -278q0 -150 -56.5 -281t-153.5 -228t-228 -153.5t-281 -56.5t-280.5 56.5t-229 153.5t-155 228t-56.5 281zM496 469q0 -39 26.5 -65.5t65.5 -26.5 t65.5 26.5t26.5 65.5t-26.5 65.5t-65.5 26.5t-65.5 -26.5t-26.5 -65.5zM496 702q66 0 124 -24.5t105 -71.5t70.5 -105.5t23.5 -123.5h135q0 94 -35.5 178t-98 146.5t-146.5 98.5t-178 36v-134zM496 938q117 0 218 -44t178 -121t121 -178t44 -218h133q0 143 -54.5 270 t-148.5 221.5t-221 148.5t-270 54v-133z" />
<glyph unicode="s" d="M96 721q0 150 56.5 281t153.5 228t228.5 153.5t280.5 56.5q150 0 281 -56.5t229 -153.5t154.5 -228.5t56.5 -280.5q0 -150 -56.5 -281t-154.5 -229t-229 -154.5t-281 -56.5t-281 56.5t-228 154.5t-153.5 229t-56.5 281zM412 606q0 -78 53 -131t131 -53q76 0 130 50 t54 128v262q0 16 12.5 29.5t30.5 13.5q16 0 28.5 -13t12.5 -30v-51l58 -27l84 27v51q0 76 -53.5 130.5t-129.5 54.5q-78 0 -131 -54.5t-53 -130.5v-256q0 -18 -12.5 -31.5t-30.5 -13.5t-30.5 13.5t-12.5 31.5v113h-141v-113zM864 600q0 -78 54.5 -131t130.5 -53q78 0 131 53 t53 131v113h-141v-113q0 -18 -12.5 -30.5t-30.5 -12.5t-30.5 12.5t-12.5 30.5v117l-84 -27l-58 27v-117z" />
<glyph unicode="t" d="M96 719q0 150 56.5 280.5t155 229t229.5 155t280 56.5q150 0 281 -56.5t228 -155t153.5 -229.5t56.5 -280q0 -150 -56.5 -281t-153.5 -228t-228 -153.5t-281 -56.5t-280.5 56.5t-229 153.5t-155 228t-56.5 281zM565 676q0 -55 19.5 -104.5t53.5 -86t80 -58t97 -21.5h174 q33 0 55.5 22.5t22.5 54.5q0 35 -21.5 56.5t-54.5 21.5h-172q-39 0 -68.5 34t-29.5 81v43h268q33 0 55.5 22.5t22.5 55.5q0 35 -22.5 57.5t-55.5 22.5h-268v77q0 33 -21.5 55.5t-56.5 22.5q-33 0 -55.5 -22.5t-22.5 -55.5v-278z" />
<glyph unicode="u" d="M96 717q0 150 56.5 280.5t153.5 228t228.5 154t280.5 56.5q150 0 281 -56.5t229 -154t154.5 -228.5t56.5 -0949E4BAE2" />
<glyph unicode="v" d="M96 719q0 150 56.5 280.5t153.5 228t228.5 154t280.5 56.5q150 0 281 -56.5t229 -154t154.5 -228.5t56.5 -280q0 -150 -56.5 -281t-154.5 -228t-229 -153.5t-281 -56.5t-281 56.5t-228 153.5t-153.5 228t-56.5 281zM420 885l33 -43q18 14 34 22q14 8 28.5 11.5t25.5 -7.5 q8 -10 26.5 -65t39 -122t40 -128t29.5 -84q8 -18 25.5 -38.5t39 -34t47.5 -14.5h2q24 0 52 17q27 18 82 64.5t112.5 114t105.5 151.5t64 178q4 23 4 42q0 33 -11 57q-17 38 -51 54q-27 12 -60 12q-9 0 -18 -1q-44 -4 -84 -27.5t-71.5 -63.5t-40.5 -93q33 20 58.5 17 t39 -19.5t12.5 -45t-17 -61.5q-35 -66 -65 -103.5t-46 -37.5t-30.5 41t-34.5 117q-10 39 -16.5 89t-18.5 93q-14 43 -36 69q-17 20 -45 21q-9 0 -18 -2q-39 -8 -80.5 -37t-76.5 -61q-41 -37 -80 -82z" />
<glyph unicode="w" d="M96 713q0 150 56.5 280.5t153.5 228t228.5 154t280.5 56.5q150 0 281 -56.5t229 -154t154.5 -228.5t56.5 -0C0BA8DAA6" />
<glyph unicode="x" d="M96 719q0 150 56.5 280.5t155 229t229.5 155t280 56.5q150 0 281 -56.5t228 -155t153.5 -229.5t56.5 -280q0 -150 -56.5 -281t-153.5 -228t-228 -153.5t-281 -56.5t-280.5 56.5t-229 153.5t-155 228t-56.5 281zM518 637h51v-250h47v250h52v41h-150v-41zM565 1059l64 -195 v-127h55v133l64 189h-56l-35 -129h-2l-37 129h-53zM686 422q0 -18 8 -29q6 -8 23 -8q12 0 24 6q14 6 25 21v-25h43v215h-43v-164q-8 -8 -12 -10q-6 -4 -13 -4q-8 0 -10 2q0 2 -1 5t-1 7v164h-43v-180zM752 797q0 -29 18 -47t51 -19q33 0 51 19q18 14 19 47v123q0 27 -19 43 q-18 18 -49 18t-53 -16q-18 -18 -18 -45v-123zM801 793v129q0 8 6 12q2 6 14 6q8 0 15 -6q6 -4 6 -12v-129q0 -8 -6 -15q-7 -6 -15 -6q-10 0 -16 6q-4 8 -4 15zM842 387h43v16q6 -6 18 -14q12 -4 23 -4q18 0 28 12q10 14 11 35v119q0 25 -11 41q-12 12 -30 12q-14 0 -21 -4 q-12 -8 -18 -14v92h-43v-291zM885 428v135q2 2 4 3t4 3q4 0 5 1t5 1q8 0 12 -6q4 -4 5 -16v-111q0 -12 -2 -14q-6 -6 -13 -6q-4 0 -5 1t-5 1q-4 2 -10 8zM930 776q0 -18 8 -31q8 -12 27 -12q10 0 26 8q8 4 15.5 9.5t13.5 13.5v-27h49v238h-49v-180q-6 -8 -14 -13 q-10 -6 -15 -6q-6 0 -10 4q-2 2 -2 13v182h-49v-199zM987 449q0 -29 17 -50q18 -18 45 -18q33 0 49 16q16 20 16 52v10h-45v-10q0 -20 -4 -25q-4 -4 -14 -4q-12 0 -15 6q-4 4 -4 23v40h82v56q0 27 -16 47q-16 16 -45 16t-47 -18t-19 -45v-96zM1032 524v21q0 16 4 20t15 4 q10 0 14 -4q4 -8 4 -20v-21h-37z" />
<glyph unicode="y" d="M96 717q0 150 56.5 280.5t155 229t229.5 155t280 56.5q150 0 281 -56.5t228 -155t153.5 -229.5t56.5 -280q0 -150 -56.5 -281t-153.5 -228t-228 -153.5t-281 -56.5t-280.5 56.5t-229 153.5t-155 228t-56.5 281zM340 944h125q18 -14 58 -59t80 -94.5t72 -91.5t34 -50 t3 -32.5t1 -52t-2 -50t-4 -25.5q-6 -8 -23.5 -11t-37 -4t-37 -1h-25.5l-6 -41q14 0 40.5 1t55 1t56.5 1t42 1h61.5h67.5t58.5 -1t31.5 -1l2 43h-26.5h-42t-40 1t-24.5 1q-2 8 -3 34t-1 54.5v53v28.5q6 14 42 49t80 71t82 63.5t48 29.5q2 0 22 4h68l10 17h2l27 39h-2l2 4 h-373l15 -60h102l-170 -153q-12 18 -33.5 44.5t-45 57.5t-49.5 64.5t-46 64.5h127v45l2 8q0 2 -2 2v5h-424v-60zM1159 438l29 -4l33 -2l8 62l-33 2l-37 4v-62zM1167 807l2 -266l58 -4l65 258q-4 0 -21.5 1t-39 3t-39.5 4t-25 4z" />
<glyph unicode="z" horiz-adv-x="1628" d="M96 719q0 150 56.5 280.5t153.5 228t228.5 154t280.5 56.5q150 0 281 -56.5t228 -154t153.5 -228.5t56.5 -0514CFAAAF" />
<glyph unicode="&#xa0;" d="M96 729q0 150 56.5 281t155 228t229 153.5t280.5 56.5t281 -56.5t228 -153.5t153.5 -228t56.5 -281t-56.5 08DD7BEA76" />
<glyph unicode="&#xad;" d="M96 719q0 150 56.5 280.5t153.5 228t228 154t281 56.5t281 -56.5t229 -154t154.5 -228.5t56.5 -280q0 -15001D14DEA95" />
<glyph unicode="&#x2000;" horiz-adv-x="724" />
<glyph unicode="&#x2001;" horiz-adv-x="1448" />
<glyph unicode="&#x2002;" horiz-adv-x="724" />
<glyph unicode="&#x2003;" horiz-adv-x="1448" />
<glyph unicode="&#x2004;" horiz-adv-x="482" />
<glyph unicode="&#x2005;" horiz-adv-x="362" />
<glyph unicode="&#x2006;" horiz-adv-x="241" />
<glyph unicode="&#x2007;" horiz-adv-x="241" />
<glyph unicode="&#x2008;" horiz-adv-x="181" />
<glyph unicode="&#x2009;" horiz-adv-x="289" />
<glyph unicode="&#x200a;" horiz-adv-x="80" />
<glyph unicode="&#x2010;" d="M96 719q0 150 56.5 280.5t153.5 228t228 154t281 56.5t281 -56.5t229 -154t154.5 -228.5t56.5 -280q0 -15001D14DEA95" />
<glyph unicode="&#x2011;" d="M96 719q0 150 56.5 280.5t153.5 228t228 154t281 56.5t281 -56.5t229 -154t154.5 -228.5t56.5 -280q0 -15001D14DEA95" />
<glyph unicode="&#x2012;" d="M96 719q0 150 56.5 280.5t153.5 228t228 154t281 56.5t281 -56.5t229 -154t154.5 -228.5t56.5 -280q0 -15001D14DEA95" />
<glyph unicode="&#x2013;" horiz-adv-x="1214" d="M96 719q0 150 40 280.5t109 228t162.5 154t199.5 56.5q107 0 200 -56.5t163 -154t110 -228.5t40 -280q0 -103D5901AB4" />
<glyph unicode="&#x2014;" horiz-adv-x="2238" d="M96 719q0 150 80.5 280.5t218.5 228t324 154t400 56.5q213 0 399.5 -56.5t325.5 -154t219.5 -228.5t80.5 -0B1ABDAA72" />
<glyph unicode="&#x202f;" horiz-adv-x="289" />
<glyph unicode="&#x205f;" horiz-adv-x="362" />
<glyph unicode="&#xe000;" horiz-adv-x="1443" d="M0 0v1444h1444v-1444h-1444z" />
</font>
</defs>
</svg>
